<?xml version="1.0" standalone="no"?><!DOCTYPE svg PUBLIC "-//W3C//DTD SVG 1.1//EN"
  "http://www.w3.org/Graphics/SVG/1.1/DTD/svg11.dtd">
<svg class="icon" style="" viewBox="0 0 1024 1024" version="1.1" xmlns="http://www.w3.org/2000/svg" width="40px"
  height="40px">
  <defs>
    <style type="text/css" />
  </defs>
  <path
    d="M944.426667 292.48c-14.72-13.013333-35.2-16.853333-53.546667-10.24l-175.573333 63.786667L554.666667 132.053333c-10.24-13.653333-25.813333-21.333333-42.666667-21.333333s-32.426667 7.893333-42.666667 21.333333l-160.64 214.186667-176.426666-64.213333c-18.133333-6.613333-38.613333-2.773333-53.12 9.813333-14.506667 12.586667-21.12 32.213333-17.28 51.2l102.4 489.6a75.093333 75.093333 0 0 0 73.173333 59.306667h539.306667a74.24 74.24 0 0 0 72.746666-58.026667l111.786667-489.6c4.266667-18.986667-2.133333-38.826667-16.853333-51.84z m-157.44 527.36c-1.066667 4.906667-5.333333 8.32-10.453334 8.32H237.226667c-5.12 0-9.386667-3.626667-10.453334-8.533333l-18.346666-87.466667H576c17.706667 0 32-14.293333 32-32s-14.293333-32-32-32H195.2L128.426667 348.8l165.76 60.373333c22.186667 8.106667 46.72 0.853333 60.8-18.133333L512 181.76l157.013333 209.28c14.293333 18.986667 38.613333 26.24 60.8 18.133333l164.48-59.946666-107.306666 470.613333z"
    fill="#FF666F" />
  <path d="M704 700.16m-42.666667 0a42.666667 42.666667 0 1 0 85.333334 0 42.666667 42.666667 0 1 0-85.333334 0Z"
    fill="#415E83" />
</svg>